<?xml version="1.0" standalone="no"?>
<!DOCTYPE svg PUBLIC "-//W3C//DTD SVG 20010904//EN"
 "http://www.w3.org/TR/2001/REC-SVG-20010904/DTD/svg10.dtd">
<svg version="1.0" xmlns="http://www.w3.org/2000/svg"
 width="373.000000pt" height="300.000000pt" viewBox="0 0 373.000000 300.000000"
 preserveAspectRatio="xMidYMid meet">

<g transform="translate(0.000000,300.000000) scale(0.100000,-0.100000)"
fill="#000000" stroke="none">
<path d="M478 2120 c-20 -11 -47 -36 -60 -57 l-23 -38 -3 -415 c-2 -283 0
-427 8 -453 15 -51 64 -104 108 -117 20 -5 82 -10 138 -10 l101 0 32 45 c20
29 44 48 64 54 28 8 23 9 -35 10 l-68 1 0 445 0 445 98 1 c53 1 103 1 110 0 6
-1 12 3 12 9 0 5 -11 10 -25 10 -22 0 -25 4 -25 40 l0 40 598 3 c552 2 537 2
-198 4 -768 2 -796 1 -832 -17z m132 -270 c24 -24 25 -38 4 -68 -18 -26 -65
-30 -84 -7 -18 22 -15 66 6 82 25 19 51 16 74 -7z m32 -177 c49 -47 34 -130
-29 -162 -39 -20 -73 -13 -109 23 -98 98 38 235 138 139z m-32 -243 c24 -24
25 -38 4 -68 -10 -14 -26 -22 -44 -22 -18 0 -34 8 -44 22 -20 29 -20 30 5 62
24 31 52 33 79 6z"/>
<path d="M2110 2126 c0 -2 7 -7 16 -10 8 -3 12 -2 9 4 -6 10 -25 14 -25 6z"/>
<path d="M2165 2090 c10 -11 20 -20 23 -20 3 0 -3 9 -13 20 -10 11 -20 20 -23
20 -3 0 3 -9 13 -20z"/>
<path d="M988 2033 c7 -3 16 -2 19 1 4 3 -2 6 -13 5 -11 0 -14 -3 -6 -6z"/>
<path d="M2215 1585 c0 -242 1 -340 2 -217 2 123 2 321 0 440 -1 119 -2 19 -2
-223z"/>
<path d="M2432 2010 c-18 -4 -36 -11 -40 -15 -4 -4 2 -5 13 -2 11 4 37 8 58
11 l37 4 0 -54 c0 -33 -4 -53 -10 -49 -5 3 -16 -5 -24 -17 -11 -17 -16 -63
-20 -168 l-5 -145 13 155 c8 85 14 156 15 158 4 8 364 0 387 -8 41 -16 276
-255 272 -277 -3 -17 -26 -18 -338 -23 -184 -3 -325 -6 -313 -8 22 -2 22 -4
25 -194 3 -193 3 -193 -23 -233 -14 -22 -31 -54 -38 -72 -8 -19 -22 -34 -34
-36 -18 -3 -17 -5 6 -6 15 0 27 4 27 9 0 22 43 100 76 139 20 22 31 41 26 41
-6 0 -13 -6 -15 -12 -3 -7 -5 73 -4 177 l1 190 3 -172 c3 -131 7 -172 17 -176
7 -3 39 8 71 24 69 35 161 39 241 12 69 -23 164 -119 191 -193 l21 -55 130 0
c87 0 135 4 143 12 15 15 30 158 32 323 2 125 0 139 -22 185 -34 69 -397 435
-461 464 -40 18 -64 20 -235 20 -104 -1 -205 -5 -223 -9z m95 -77 c-2 -16 -4
-5 -4 22 0 28 2 40 4 28 2 -13 2 -35 0 -50z"/>
<path d="M2350 1965 c-13 -14 -22 -27 -19 -29 2 -2 14 10 27 25 29 36 24 38
-8 4z"/>
<path d="M2314 1700 c0 -85 2 -120 3 -77 2 42 2 112 0 155 -1 42 -3 7 -3 -78z"/>
<path d="M2154 1600 c0 -85 2 -120 3 -77 2 42 2 112 0 155 -1 42 -3 7 -3 -78z"/>
<path d="M2311 1504 c0 -11 3 -14 6 -6 3 7 2 16 -1 19 -3 4 -6 -2 -5 -13z"/>
<path d="M2313 1210 c0 -47 2 -66 4 -42 2 23 2 61 0 85 -2 23 -4 4 -4 -43z"/>
<path d="M2665 1151 c-22 -10 -53 -34 -70 -52 -22 -25 -23 -28 -5 -12 l25 22
-3 -145 c-2 -101 0 -144 8 -144 6 0 8 -4 5 -10 -11 -18 -24 -10 -49 33 -14 23
-26 37 -26 31 0 -20 45 -78 79 -101 103 -69 235 -45 305 55 41 57 49 158 18
218 -56 108 -181 154 -287 105z m137 -122 c11 -6 26 -26 34 -44 39 -93 -75
-168 -147 -96 -37 37 -38 79 -3 120 28 33 75 42 116 20z"/>
<path d="M943 1153 c9 -2 25 -2 35 0 9 3 1 5 -18 5 -19 0 -27 -2 -17 -5z"/>
<path d="M898 1143 c7 -3 16 -2 19 1 4 3 -2 6 -13 5 -11 0 -14 -3 -6 -6z"/>
<path d="M1058 1133 c12 -2 32 -2 45 0 12 2 2 4 -23 4 -25 0 -35 -2 -22 -4z"/>
<path d="M2169 1083 l-24 -28 28 24 c15 14 27 26 27 28 0 8 -8 1 -31 -24z"/>
<path d="M2330 1076 c0 -2 8 -10 18 -17 15 -13 16 -12 3 4 -13 16 -21 21 -21
13z"/>
<path d="M928 1033 c7 -3 16 -2 19 1 4 3 -2 6 -13 5 -11 0 -14 -3 -6 -6z"/>
<path d="M978 1033 c7 -3 16 -2 19 1 4 3 -2 6 -13 5 -11 0 -14 -3 -6 -6z"/>
<path d="M1020 1016 c0 -2 8 -10 18 -17 15 -13 16 -12 3 4 -13 16 -21 21 -21
13z"/>
<path d="M2541 1004 c0 -11 3 -14 6 -6 3 7 2 16 -1 19 -3 4 -6 -2 -5 -13z"/>
<path d="M741 944 c0 -11 3 -14 6 -6 3 7 2 16 -1 19 -3 4 -6 -2 -5 -13z"/>
<path d="M885 870 c10 -11 20 -20 23 -20 3 0 -3 9 -13 20 -10 11 -20 20 -23
20 -3 0 3 -9 13 -20z"/>
<path d="M1024 868 l-19 -23 23 19 c21 18 27 26 19 26 -2 0 -12 -10 -23 -22z"/>
<path d="M760 851 c0 -6 4 -13 10 -16 6 -3 7 1 4 9 -7 18 -14 21 -14 7z"/>
<path d="M1146 843 c-6 -14 -5 -15 5 -6 7 7 10 15 7 18 -3 3 -9 -2 -12 -12z"/>
<path d="M780 817 c0 -2 15 -16 33 -33 l32 -29 -29 33 c-28 30 -36 37 -36 29z"/>
<path d="M1104 788 l-29 -33 33 29 c30 28 37 36 29 36 -2 0 -16 -15 -33 -32z"/>
<path d="M857 749 c7 -7 15 -10 18 -7 3 3 -2 9 -12 12 -14 6 -15 5 -6 -5z"/>
<path d="M1050 750 c-9 -6 -10 -10 -3 -10 6 0 15 5 18 10 8 12 4 12 -15 0z"/>
<path d="M537 674 c-4 -4 -7 -79 -7 -166 0 -144 2 -158 18 -158 15 0 17 10 14
94 -3 90 -2 95 20 107 12 7 42 13 66 13 62 1 72 -17 72 -126 0 -74 3 -88 16
-88 14 0 15 14 12 101 -3 93 -5 102 -28 121 -22 18 -34 20 -93 14 l-69 -6 3
47 c3 43 -8 63 -24 47z"/>
<path d="M1242 660 c-45 -11 -72 -38 -72 -71 0 -38 37 -64 124 -90 83 -24 111
-46 101 -79 -17 -54 -134 -63 -207 -15 l-37 25 8 -23 c31 -84 236 -79 266 7
17 50 -8 77 -108 111 -92 32 -121 52 -112 77 15 40 96 49 163 18 34 -15 42
-16 42 -5 0 32 -105 61 -168 45z"/>
<path d="M2713 663 c-10 -4 -13 -45 -13 -159 l0 -154 115 0 c96 0 115 3 115
15 0 12 -18 15 -100 15 l-101 0 2 141 c0 77 -1 142 -2 143 -2 2 -10 1 -16 -1z"/>
<path d="M3353 661 c-84 -21 -126 -78 -120 -164 4 -66 25 -101 79 -129 62 -32
208 -20 208 17 0 12 -6 12 -35 -1 -44 -18 -106 -18 -150 0 -98 41 -99 193 -2
239 43 21 113 22 151 2 35 -18 36 -18 36 -2 0 29 -106 53 -167 38z"/>
<path d="M210 650 c0 -6 28 -10 65 -10 l65 0 0 -145 c0 -122 2 -145 15 -145
13 0 15 23 15 145 l0 145 65 0 c37 0 65 4 65 10 0 6 -55 10 -145 10 -90 0
-145 -4 -145 -10z"/>
<path d="M2980 505 l0 -155 115 0 c96 0 115 3 115 15 0 12 -18 15 -100 15
l-100 0 0 140 c0 118 -2 140 -15 140 -13 0 -15 -24 -15 -155z"/>
<path d="M835 558 c-45 -41 -55 -90 -30 -142 10 -20 30 -43 46 -51 51 -27 179
-12 179 20 0 12 -6 11 -35 -1 -59 -24 -102 -19 -141 20 -59 59 -50 66 77 66
l112 0 -7 33 c-3 17 -20 44 -36 60 -25 22 -40 27 -80 27 -43 0 -56 -5 -85 -32z
m153 -24 c12 -14 22 -29 22 -35 0 -5 -40 -9 -90 -9 -68 0 -90 3 -90 13 0 15
36 51 60 60 28 11 75 -3 98 -29z"/>
<path d="M1523 575 c-38 -16 -63 -60 -63 -112 0 -46 20 -77 62 -99 53 -28 158
-19 158 13 0 11 -5 13 -17 8 -10 -5 -33 -10 -51 -13 -115 -16 -170 133 -67
183 41 19 72 19 108 1 23 -13 27 -13 27 -1 0 35 -96 47 -157 20z"/>
<path d="M1769 567 c-43 -29 -64 -86 -49 -132 30 -92 143 -118 216 -50 29 27
34 39 34 76 -1 24 -6 54 -14 67 -34 62 -125 81 -187 39z m120 -11 c87 -45 54
-186 -44 -186 -97 0 -133 138 -47 184 34 19 56 20 91 2z"/>
<path d="M2074 580 c-36 -14 -74 -68 -74 -106 0 -118 141 -172 223 -86 92 96
-22 243 -149 192z m113 -32 c27 -22 44 -68 38 -98 -8 -36 -58 -80 -90 -80 -57
0 -105 47 -105 103 0 29 34 75 64 88 25 10 73 4 93 -13z"/>
<path d="M2300 423 c0 -150 1 -163 18 -163 14 0 17 7 14 40 -6 64 0 71 46 55
104 -36 206 70 158 164 -28 54 -69 71 -158 69 l-78 -2 0 -163z m181 121 c27
-24 42 -76 30 -106 -16 -43 -60 -71 -104 -65 -64 9 -78 29 -75 111 3 70 4 71
33 78 43 9 94 2 116 -18z"/>
<path d="M2555 369 c-4 -6 -2 -15 5 -19 8 -5 10 -16 5 -31 -5 -18 -4 -21 4
-13 16 15 19 66 4 71 -6 2 -14 -1 -18 -8z"/>
</g>
</svg>
